<?xml version="1.0" encoding="UTF-8"?>
<svg xmlns="http://www.w3.org/2000/svg" width="2048" height="3072" viewBox="0 0 512 768">
<defs>
  <pattern id="sand" width="13" height="13" patternUnits="userSpaceOnUse">
    <circle cx="2" cy="3" r=".45" fill="#B89E76" opacity=".18"/>
    <circle cx="10" cy="9" r=".4" fill="#B89E76" opacity=".14"/>
  </pattern>
  <filter id="shadow" x="-20%" y="-20%" width="140%" height="140%">
    <feDropShadow dx="0" dy="1.2" stdDeviation="1" flood-color="#453D32" flood-opacity=".22"/>
  </filter>
</defs>
<rect width="512" height="768" fill="#F4EFE5"/>
<polygon points="80,35 178,24 302,40 425,22 486,70 503,154 480,240 503,339 468,452 492,564 444,688 346,742 220,730 112,750 39,680 24,580 50,475 18,370 42,270 25,165" fill="#D8C29E" stroke="#4D473D" stroke-width="3.2"/>
<polygon points="80,35 178,24 302,40 425,22 486,70 503,154 480,240 503,339 468,452 492,564 444,688 346,742 220,730 112,750 39,680 24,580 50,475 18,370 42,270 25,165" fill="url(#sand)"/>

<!-- 外缘连续环路使每个出生点天然具有顺/逆时针两个方向 -->
<path d="M91 65 L187 53 L293 65 L403 48 L459 99 L466 186 L449 266 L471 349 L441 442 L459 548 L452 643 L344 700 L247 695 L145 711 L76 661 L56 576 L77 477 L48 376 L71 272 L56 173 Z" fill="none" stroke="#5C5144" stroke-width="15.4" stroke-linejoin="round" stroke-linecap="round"/>
   <path d="M91 65 L187 53 L293 65 L403 48 L459 99 L466 186 L449 266 L471 349 L441 442 L459 548 L452 643 L344 700 L247 695 L145 711 L76 661 L56 576 L77 477 L48 376 L71 272 L56 173 Z" fill="none" stroke="#EFE4CE" stroke-width="13" stroke-linejoin="round" stroke-linecap="round"/>

<!-- 两座不对称、彼此错位的公共庭院回路 -->
<path d="M124 274 L167 235 L225 231 L278 267 L292 318 L258 363 L204 379 L150 357 L116 321 Z" fill="none" stroke="#5C5144" stroke-width="12.4" stroke-linejoin="round" stroke-linecap="round"/>
   <path d="M124 274 L167 235 L225 231 L278 267 L292 318 L258 363 L204 379 L150 357 L116 321 Z" fill="none" stroke="#EFE4CE" stroke-width="10" stroke-linejoin="round" stroke-linecap="round"/>
<path d="M262 455 L307 414 L366 421 L407 457 L423 515 L391 565 L337 588 L280 572 L243 527 Z" fill="none" stroke="#5C5144" stroke-width="12.4" stroke-linejoin="round" stroke-linecap="round"/>
   <path d="M262 455 L307 414 L366 421 L407 457 L423 515 L391 565 L337 588 L280 572 L243 527 Z" fill="none" stroke="#EFE4CE" stroke-width="10" stroke-linejoin="round" stroke-linecap="round"/>

<!-- 弯折主街与斜向穿越路，不设固定起终点 -->
<path d="M293 65 L270 128 L249 194 L233 250 L251 319 L281 384 L315 451 L348 519 L377 585 L452 643" fill="none" stroke="#5C5144" stroke-width="13.4" stroke-linejoin="round" stroke-linecap="round"/>
   <path d="M293 65 L270 128 L249 194 L233 250 L251 319 L281 384 L315 451 L348 519 L377 585 L452 643" fill="none" stroke="#EFE4CE" stroke-width="11" stroke-linejoin="round" stroke-linecap="round"/>
<path d="M71 272 L118 258 L167 235 L233 250 L307 414 L366 421 L449 266" fill="none" stroke="#5C5144" stroke-width="11.4" stroke-linejoin="round" stroke-linecap="round"/>
   <path d="M71 272 L118 258 L167 235 L233 250 L307 414 L366 421 L449 266" fill="none" stroke="#EFE4CE" stroke-width="9" stroke-linejoin="round" stroke-linecap="round"/>
<path d="M77 477 L122 447 L178 424 L243 527 L280 572 L344 700" fill="none" stroke="#5C5144" stroke-width="11.4" stroke-linejoin="round" stroke-linecap="round"/>
   <path d="M77 477 L122 447 L178 424 L243 527 L280 572 L344 700" fill="none" stroke="#EFE4CE" stroke-width="9" stroke-linejoin="round" stroke-linecap="round"/>
<path d="M56 173 L112 188 L168 185 L233 195 L316 186 L392 188 L466 186" fill="none" stroke="#5C5144" stroke-width="10.4" stroke-linejoin="round" stroke-linecap="round"/>
   <path d="M56 173 L112 188 L168 185 L233 195 L316 186 L392 188 L466 186" fill="none" stroke="#EFE4CE" stroke-width="8" stroke-linejoin="round" stroke-linecap="round"/>
<path d="M48 376 L102 361 L150 357 L204 379 L281 384 L356 377 L421 401 L441 442" fill="none" stroke="#5C5144" stroke-width="10.4" stroke-linejoin="round" stroke-linecap="round"/>
   <path d="M48 376 L102 361 L150 357 L204 379 L281 384 L356 377 L421 401 L441 442" fill="none" stroke="#EFE4CE" stroke-width="8" stroke-linejoin="round" stroke-linecap="round"/>
<path d="M56 576 L126 570 L181 590 L249 624 L326 621 L400 596 L459 548" fill="none" stroke="#5C5144" stroke-width="10.4" stroke-linejoin="round" stroke-linecap="round"/>
   <path d="M56 576 L126 570 L181 590 L249 624 L326 621 L400 596 L459 548" fill="none" stroke="#EFE4CE" stroke-width="8" stroke-linejoin="round" stroke-linecap="round"/>

<!-- 次级折巷：制造不同大小回路与密度变化 -->
<path d="M91 65 L109 113 L146 109 L178 117 L187 53" fill="none" stroke="#5C5144" stroke-width="7.9" stroke-linejoin="round" stroke-linecap="round"/>
   <path d="M91 65 L109 113 L146 109 L178 117 L187 53" fill="none" stroke="#EFE4CE" stroke-width="5.5" stroke-linejoin="round" stroke-linecap="round"/>
<path d="M403 48 L391 105 L352 110 L316 104 L293 65" fill="none" stroke="#5C5144" stroke-width="7.9" stroke-linejoin="round" stroke-linecap="round"/>
   <path d="M403 48 L391 105 L352 110 L316 104 L293 65" fill="none" stroke="#EFE4CE" stroke-width="5.5" stroke-linejoin="round" stroke-linecap="round"/>
<path d="M91 188 L130 189 L168 185 L181 216 L141 220 L105 221 L71 272" fill="none" stroke="#5C5144" stroke-width="7.9" stroke-linejoin="round" stroke-linecap="round"/>
   <path d="M91 188 L130 189 L168 185 L181 216 L141 220 L105 221 L71 272" fill="none" stroke="#EFE4CE" stroke-width="5.5" stroke-linejoin="round" stroke-linecap="round"/>
<path d="M278 190 L316 186 L352 190 L392 188 L426 205 L449 266" fill="none" stroke="#5C5144" stroke-width="7.9" stroke-linejoin="round" stroke-linecap="round"/>
   <path d="M278 190 L316 186 L352 190 L392 188 L426 205 L449 266" fill="none" stroke="#EFE4CE" stroke-width="5.5" stroke-linejoin="round" stroke-linecap="round"/>
<path d="M116 321 L90 340 L76 382 L104 407 L153 434 L178 424" fill="none" stroke="#5C5144" stroke-width="7.9" stroke-linejoin="round" stroke-linecap="round"/>
   <path d="M116 321 L90 340 L76 382 L104 407 L153 434 L178 424" fill="none" stroke="#EFE4CE" stroke-width="5.5" stroke-linejoin="round" stroke-linecap="round"/>
<path d="M407 457 L395 407 L365 390 L333 381 L305 392 L281 384" fill="none" stroke="#5C5144" stroke-width="7.9" stroke-linejoin="round" stroke-linecap="round"/>
   <path d="M407 457 L395 407 L365 390 L333 381 L305 392 L281 384" fill="none" stroke="#EFE4CE" stroke-width="5.5" stroke-linejoin="round" stroke-linecap="round"/>
<path d="M243 527 L200 595 L167 580 L128 570 L91 567 L56 576" fill="none" stroke="#5C5144" stroke-width="7.9" stroke-linejoin="round" stroke-linecap="round"/>
   <path d="M243 527 L200 595 L167 580 L128 570 L91 567 L56 576" fill="none" stroke="#EFE4CE" stroke-width="5.5" stroke-linejoin="round" stroke-linecap="round"/>
<path d="M391 565 L409 636 L365 614 L326 621 L287 627 L247 695" fill="none" stroke="#5C5144" stroke-width="7.9" stroke-linejoin="round" stroke-linecap="round"/>
   <path d="M391 565 L409 636 L365 614 L326 621 L287 627 L247 695" fill="none" stroke="#EFE4CE" stroke-width="5.5" stroke-linejoin="round" stroke-linecap="round"/>

<!-- 公共庭院，仅表达节奏停顿，不绑定功能 -->
<polygon points="155,278 183,257 222,255 256,277 267,312 247,340 212,352 174,339 147,316"
  fill="#A7CEC4" stroke="#4D5F59" stroke-width="1.4"/>
<path d="M178 285 L214 271 L244 286 L251 313 L226 333 L190 330 L170 310 Z"
  fill="#E7D7AF" stroke="#73664E" stroke-width="1"/>
<polygon points="285,465 318,442 357,445 389,470 397,510 375,542 340,559 301,546 271,517"
  fill="#9FC6C0" stroke="#4D5F59" stroke-width="1.4"/>
<path d="M310 473 L342 458 L372 477 L377 509 L354 532 L320 535 L294 510 Z"
  fill="#E8D7AE" stroke="#73664E" stroke-width="1"/>

<!-- 85座无编号建筑；颜色只用于轮廓可读性，不代表功能分区 -->
<g filter="url(#shadow)"><g transform="rotate(-10 109 113)">
    <rect x="92" y="104" width="34" height="18" rx="0.9"
      fill="#C7A97B" stroke="#453E35" stroke-width="1.05"/>
    <line x1="94" y1="106.1" x2="124" y2="106.1"
      stroke="#F6E8CD" stroke-width="0.7" opacity="0.9"/>
  </g><g transform="rotate(-5 146 109)">
    <rect x="130.5" y="100.5" width="31" height="17" rx="0.9"
      fill="#B68D69" stroke="#453E35" stroke-width="1.05"/>
    <line x1="132.5" y1="102.6" x2="159.5" y2="102.6"
      stroke="#F6E8CD" stroke-width="0.7" opacity="0.9"/>
  </g><g transform="rotate(9 181 117)">
    <rect x="167" y="107" width="28" height="20" rx="0.9"
      fill="#D4C39E" stroke="#453E35" stroke-width="1.05"/>
    <line x1="169" y1="109.1" x2="193" y2="109.1"
      stroke="#F6E8CD" stroke-width="0.7" opacity="0.9"/>
  </g><g transform="rotate(-9 106 148)">
    <rect x="96" y="132.5" width="20" height="31" rx="0.9"
      fill="#8EA6A0" stroke="#453E35" stroke-width="1.05"/>
    <line x1="98" y1="134.6" x2="114" y2="134.6"
      stroke="#F6E8CD" stroke-width="0.7" opacity="0.9"/>
  </g><g transform="rotate(4 139 149)">
    <rect x="122" y="140" width="34" height="18" rx="0.9"
      fill="#A99787" stroke="#453E35" stroke-width="1.05"/>
    <line x1="124" y1="142.1" x2="154" y2="142.1"
      stroke="#F6E8CD" stroke-width="0.7" opacity="0.9"/>
  </g><g transform="rotate(-8 178 151)">
    <rect x="162.5" y="142" width="31" height="18" rx="0.9"
      fill="#C7A97B" stroke="#453E35" stroke-width="1.05"/>
    <line x1="164.5" y1="144.1" x2="191.5" y2="144.1"
      stroke="#F6E8CD" stroke-width="0.7" opacity="0.9"/>
  </g><g transform="rotate(12 91 188)">
    <rect x="73" y="179" width="36" height="18" rx="0.9"
      fill="#B68D69" stroke="#453E35" stroke-width="1.05"/>
    <line x1="75" y1="181.1" x2="107" y2="181.1"
      stroke="#F6E8CD" stroke-width="0.7" opacity="0.9"/>
  </g><g transform="rotate(-3 130 189)">
    <rect x="113.5" y="179" width="33" height="20" rx="0.9"
      fill="#D4C39E" stroke="#453E35" stroke-width="1.05"/>
    <line x1="115.5" y1="181.1" x2="144.5" y2="181.1"
      stroke="#F6E8CD" stroke-width="0.7" opacity="0.9"/>
  </g><g transform="rotate(7 168 185)">
    <rect x="151" y="176" width="34" height="18" rx="0.9"
      fill="#8EA6A0" stroke="#453E35" stroke-width="1.05"/>
    <line x1="153" y1="178.1" x2="183" y2="178.1"
      stroke="#F6E8CD" stroke-width="0.7" opacity="0.9"/>
  </g><g transform="rotate(-5 199 181)">
    <rect x="189" y="166" width="20" height="30" rx="0.9"
      fill="#A99787" stroke="#453E35" stroke-width="1.05"/>
    <line x1="191" y1="168.1" x2="207" y2="168.1"
      stroke="#F6E8CD" stroke-width="0.7" opacity="0.9"/>
  </g><g transform="rotate(-11 105 221)">
    <rect x="90.5" y="212" width="29" height="18" rx="0.9"
      fill="#C7A97B" stroke="#453E35" stroke-width="1.05"/>
    <line x1="92.5" y1="214.1" x2="117.5" y2="214.1"
      stroke="#F6E8CD" stroke-width="0.7" opacity="0.9"/>
  </g><g transform="rotate(3 141 220)">
    <rect x="123.5" y="211" width="35" height="18" rx="0.9"
      fill="#B68D69" stroke="#453E35" stroke-width="1.05"/>
    <line x1="125.5" y1="213.1" x2="156.5" y2="213.1"
      stroke="#F6E8CD" stroke-width="0.7" opacity="0.9"/>
  </g><g transform="rotate(10 180 216)">
    <rect x="164.5" y="206" width="31" height="20" rx="0.9"
      fill="#D4C39E" stroke="#453E35" stroke-width="1.05"/>
    <line x1="166.5" y1="208.1" x2="193.5" y2="208.1"
      stroke="#F6E8CD" stroke-width="0.7" opacity="0.9"/>
  </g><g transform="rotate(-7 281 108)">
    <rect x="266" y="99" width="30" height="18" rx="0.9"
      fill="#8EA6A0" stroke="#453E35" stroke-width="1.05"/>
    <line x1="268" y1="101.1" x2="294" y2="101.1"
      stroke="#F6E8CD" stroke-width="0.7" opacity="0.9"/>
  </g><g transform="rotate(4 316 104)">
    <rect x="302" y="95" width="28" height="18" rx="0.9"
      fill="#A99787" stroke="#453E35" stroke-width="1.05"/>
    <line x1="304" y1="97.1" x2="328" y2="97.1"
      stroke="#F6E8CD" stroke-width="0.7" opacity="0.9"/>
  </g><g transform="rotate(11 352 110)">
    <rect x="335.5" y="101" width="33" height="18" rx="0.9"
      fill="#C7A97B" stroke="#453E35" stroke-width="1.05"/>
    <line x1="337.5" y1="103.1" x2="366.5" y2="103.1"
      stroke="#F6E8CD" stroke-width="0.7" opacity="0.9"/>
  </g><g transform="rotate(-8 391 105)">
    <rect x="374" y="95.5" width="34" height="19" rx="0.9"
      fill="#B68D69" stroke="#453E35" stroke-width="1.05"/>
    <line x1="376" y1="97.6" x2="406" y2="97.6"
      stroke="#F6E8CD" stroke-width="0.7" opacity="0.9"/>
  </g><g transform="rotate(-6 272 145)">
    <rect x="261" y="129.5" width="22" height="31" rx="0.9"
      fill="#D4C39E" stroke="#453E35" stroke-width="1.05"/>
    <line x1="263" y1="131.6" x2="281" y2="131.6"
      stroke="#F6E8CD" stroke-width="0.7" opacity="0.9"/>
  </g><g transform="rotate(6 306 146)">
    <rect x="290.5" y="137" width="31" height="18" rx="0.9"
      fill="#8EA6A0" stroke="#453E35" stroke-width="1.05"/>
    <line x1="292.5" y1="139.1" x2="319.5" y2="139.1"
      stroke="#F6E8CD" stroke-width="0.7" opacity="0.9"/>
  </g><g transform="rotate(-5 344 148)">
    <rect x="326.5" y="139" width="35" height="18" rx="0.9"
      fill="#A99787" stroke="#453E35" stroke-width="1.05"/>
    <line x1="328.5" y1="141.1" x2="359.5" y2="141.1"
      stroke="#F6E8CD" stroke-width="0.7" opacity="0.9"/>
  </g><g transform="rotate(12 386 145)">
    <rect x="371" y="135" width="30" height="20" rx="0.9"
      fill="#C7A97B" stroke="#453E35" stroke-width="1.05"/>
    <line x1="373" y1="137.1" x2="399" y2="137.1"
      stroke="#F6E8CD" stroke-width="0.7" opacity="0.9"/>
  </g><g transform="rotate(8 422 157)">
    <rect x="411.5" y="141" width="21" height="32" rx="0.9"
      fill="#B68D69" stroke="#453E35" stroke-width="1.05"/>
    <line x1="413.5" y1="143.1" x2="430.5" y2="143.1"
      stroke="#F6E8CD" stroke-width="0.7" opacity="0.9"/>
  </g><g transform="rotate(-9 278 190)">
    <rect x="262" y="181" width="32" height="18" rx="0.9"
      fill="#D4C39E" stroke="#453E35" stroke-width="1.05"/>
    <line x1="264" y1="183.1" x2="292" y2="183.1"
      stroke="#F6E8CD" stroke-width="0.7" opacity="0.9"/>
  </g><g transform="rotate(7 316 186)">
    <rect x="301.5" y="176.5" width="29" height="19" rx="0.9"
      fill="#8EA6A0" stroke="#453E35" stroke-width="1.05"/>
    <line x1="303.5" y1="178.6" x2="328.5" y2="178.6"
      stroke="#F6E8CD" stroke-width="0.7" opacity="0.9"/>
  </g><g transform="rotate(-4 352 190)">
    <rect x="334.5" y="181" width="35" height="18" rx="0.9"
      fill="#A99787" stroke="#453E35" stroke-width="1.05"/>
    <line x1="336.5" y1="183.1" x2="367.5" y2="183.1"
      stroke="#F6E8CD" stroke-width="0.7" opacity="0.9"/>
  </g><g transform="rotate(9 392 188)">
    <rect x="376.5" y="178" width="31" height="20" rx="0.9"
      fill="#C7A97B" stroke="#453E35" stroke-width="1.05"/>
    <line x1="378.5" y1="180.1" x2="405.5" y2="180.1"
      stroke="#F6E8CD" stroke-width="0.7" opacity="0.9"/>
  </g><g transform="rotate(-12 426 205)">
    <rect x="414.5" y="190" width="23" height="30" rx="0.9"
      fill="#B68D69" stroke="#453E35" stroke-width="1.05"/>
    <line x1="416.5" y1="192.1" x2="435.5" y2="192.1"
      stroke="#F6E8CD" stroke-width="0.7" opacity="0.9"/>
  </g><g transform="rotate(-13 139 259)">
    <rect x="123.5" y="250" width="31" height="18" rx="0.9"
      fill="#D4C39E" stroke="#453E35" stroke-width="1.05"/>
    <line x1="125.5" y1="252.1" x2="152.5" y2="252.1"
      stroke="#F6E8CD" stroke-width="0.7" opacity="0.9"/>
  </g><g transform="rotate(-5 175 247)">
    <rect x="159" y="238" width="32" height="18" rx="0.9"
      fill="#8EA6A0" stroke="#453E35" stroke-width="1.05"/>
    <line x1="161" y1="240.1" x2="189" y2="240.1"
      stroke="#F6E8CD" stroke-width="0.7" opacity="0.9"/>
  </g><g transform="rotate(5 212 245)">
    <rect x="196.5" y="236" width="31" height="18" rx="0.9"
      fill="#A99787" stroke="#453E35" stroke-width="1.05"/>
    <line x1="198.5" y1="238.1" x2="225.5" y2="238.1"
      stroke="#F6E8CD" stroke-width="0.7" opacity="0.9"/>
  </g><g transform="rotate(13 249 257)">
    <rect x="232" y="248" width="34" height="18" rx="0.9"
      fill="#C7A97B" stroke="#453E35" stroke-width="1.05"/>
    <line x1="234" y1="250.1" x2="264" y2="250.1"
      stroke="#F6E8CD" stroke-width="0.7" opacity="0.9"/>
  </g><g transform="rotate(12 276 286)">
    <rect x="266" y="270" width="20" height="32" rx="0.9"
      fill="#B68D69" stroke="#453E35" stroke-width="1.05"/>
    <line x1="268" y1="272.1" x2="284" y2="272.1"
      stroke="#F6E8CD" stroke-width="0.7" opacity="0.9"/>
  </g><g transform="rotate(-6 278 325)">
    <rect x="267.5" y="308.5" width="21" height="33" rx="0.9"
      fill="#D4C39E" stroke="#453E35" stroke-width="1.05"/>
    <line x1="269.5" y1="310.6" x2="286.5" y2="310.6"
      stroke="#F6E8CD" stroke-width="0.7" opacity="0.9"/>
  </g><g transform="rotate(-10 244 357)">
    <rect x="227" y="348" width="34" height="18" rx="0.9"
      fill="#8EA6A0" stroke="#453E35" stroke-width="1.05"/>
    <line x1="229" y1="350.1" x2="259" y2="350.1"
      stroke="#F6E8CD" stroke-width="0.7" opacity="0.9"/>
  </g><g transform="rotate(2 205 365)">
    <rect x="188.5" y="356" width="33" height="18" rx="0.9"
      fill="#A99787" stroke="#453E35" stroke-width="1.05"/>
    <line x1="190.5" y1="358.1" x2="219.5" y2="358.1"
      stroke="#F6E8CD" stroke-width="0.7" opacity="0.9"/>
  </g><g transform="rotate(11 166 357)">
    <rect x="150" y="348" width="32" height="18" rx="0.9"
      fill="#C7A97B" stroke="#453E35" stroke-width="1.05"/>
    <line x1="152" y1="350.1" x2="180" y2="350.1"
      stroke="#F6E8CD" stroke-width="0.7" opacity="0.9"/>
  </g><g transform="rotate(-8 129 329)">
    <rect x="119" y="312" width="20" height="34" rx="0.9"
      fill="#B68D69" stroke="#453E35" stroke-width="1.05"/>
    <line x1="121" y1="314.1" x2="137" y2="314.1"
      stroke="#F6E8CD" stroke-width="0.7" opacity="0.9"/>
  </g><g transform="rotate(9 124 291)">
    <rect x="113.5" y="275" width="21" height="32" rx="0.9"
      fill="#D4C39E" stroke="#453E35" stroke-width="1.05"/>
    <line x1="115.5" y1="277.1" x2="132.5" y2="277.1"
      stroke="#F6E8CD" stroke-width="0.7" opacity="0.9"/>
  </g><g transform="rotate(4 152 328)">
    <rect x="140" y="319.5" width="24" height="17" rx="0.9"
      fill="#8EA6A0" stroke="#453E35" stroke-width="1.05"/>
    <line x1="142" y1="321.6" x2="162" y2="321.6"
      stroke="#F6E8CD" stroke-width="0.7" opacity="0.9"/>
  </g><g transform="rotate(-7 254 315)">
    <rect x="244" y="306" width="20" height="18" rx="0.9"
      fill="#A99787" stroke="#453E35" stroke-width="1.05"/>
    <line x1="246" y1="308.1" x2="262" y2="308.1"
      stroke="#F6E8CD" stroke-width="0.7" opacity="0.9"/>
  </g><g transform="rotate(12 78 304)">
    <rect x="64.5" y="295" width="27" height="18" rx="0.9"
      fill="#C7A97B" stroke="#453E35" stroke-width="1.05"/>
    <line x1="66.5" y1="297.1" x2="89.5" y2="297.1"
      stroke="#F6E8CD" stroke-width="0.7" opacity="0.9"/>
  </g><g transform="rotate(-8 90 340)">
    <rect x="80" y="325" width="20" height="30" rx="0.9"
      fill="#B68D69" stroke="#453E35" stroke-width="1.05"/>
    <line x1="82" y1="327.1" x2="98" y2="327.1"
      stroke="#F6E8CD" stroke-width="0.7" opacity="0.9"/>
  </g><g transform="rotate(-12 76 382)">
    <rect x="60.5" y="373" width="31" height="18" rx="0.9"
      fill="#D4C39E" stroke="#453E35" stroke-width="1.05"/>
    <line x1="62.5" y1="375.1" x2="89.5" y2="375.1"
      stroke="#F6E8CD" stroke-width="0.7" opacity="0.9"/>
  </g><g transform="rotate(7 104 407)">
    <rect x="93" y="391.5" width="22" height="31" rx="0.9"
      fill="#8EA6A0" stroke="#453E35" stroke-width="1.05"/>
    <line x1="95" y1="393.6" x2="113" y2="393.6"
      stroke="#F6E8CD" stroke-width="0.7" opacity="0.9"/>
  </g><g transform="rotate(10 76 442)">
    <rect x="59" y="433" width="34" height="18" rx="0.9"
      fill="#A99787" stroke="#453E35" stroke-width="1.05"/>
    <line x1="61" y1="435.1" x2="91" y2="435.1"
      stroke="#F6E8CD" stroke-width="0.7" opacity="0.9"/>
  </g><g transform="rotate(-5 119 445)">
    <rect x="104" y="435.5" width="30" height="19" rx="0.9"
      fill="#C7A97B" stroke="#453E35" stroke-width="1.05"/>
    <line x1="106" y1="437.6" x2="132" y2="437.6"
      stroke="#F6E8CD" stroke-width="0.7" opacity="0.9"/>
  </g><g transform="rotate(8 141 398)">
    <rect x="131" y="383" width="20" height="30" rx="0.9"
      fill="#B68D69" stroke="#453E35" stroke-width="1.05"/>
    <line x1="133" y1="385.1" x2="149" y2="385.1"
      stroke="#F6E8CD" stroke-width="0.7" opacity="0.9"/>
  </g><g transform="rotate(13 153 434)">
    <rect x="139" y="425" width="28" height="18" rx="0.9"
      fill="#D4C39E" stroke="#453E35" stroke-width="1.05"/>
    <line x1="141" y1="427.1" x2="165" y2="427.1"
      stroke="#F6E8CD" stroke-width="0.7" opacity="0.9"/>
  </g><g transform="rotate(-10 103 479)">
    <rect x="86.5" y="470" width="33" height="18" rx="0.9"
      fill="#8EA6A0" stroke="#453E35" stroke-width="1.05"/>
    <line x1="88.5" y1="472.1" x2="117.5" y2="472.1"
      stroke="#F6E8CD" stroke-width="0.7" opacity="0.9"/>
  </g><g transform="rotate(5 147 478)">
    <rect x="130" y="468" width="34" height="20" rx="0.9"
      fill="#A99787" stroke="#453E35" stroke-width="1.05"/>
    <line x1="132" y1="470.1" x2="162" y2="470.1"
      stroke="#F6E8CD" stroke-width="0.7" opacity="0.9"/>
  </g><g transform="rotate(12 196 395)">
    <rect x="182.5" y="386.5" width="27" height="17" rx="0.9"
      fill="#C7A97B" stroke="#453E35" stroke-width="1.05"/>
    <line x1="184.5" y1="388.6" x2="207.5" y2="388.6"
      stroke="#F6E8CD" stroke-width="0.7" opacity="0.9"/>
  </g><g transform="rotate(9 226 407)">
    <rect x="212" y="398.5" width="28" height="17" rx="0.9"
      fill="#B68D69" stroke="#453E35" stroke-width="1.05"/>
    <line x1="214" y1="400.6" x2="238" y2="400.6"
      stroke="#F6E8CD" stroke-width="0.7" opacity="0.9"/>
  </g><g transform="rotate(14 256 420)">
    <rect x="243.5" y="411" width="25" height="18" rx="0.9"
      fill="#D4C39E" stroke="#453E35" stroke-width="1.05"/>
    <line x1="245.5" y1="413.1" x2="266.5" y2="413.1"
      stroke="#F6E8CD" stroke-width="0.7" opacity="0.9"/>
  </g><g transform="rotate(18 281 443)">
    <rect x="270" y="433.5" width="22" height="19" rx="0.9"
      fill="#8EA6A0" stroke="#453E35" stroke-width="1.05"/>
    <line x1="272" y1="435.6" x2="290" y2="435.6"
      stroke="#F6E8CD" stroke-width="0.7" opacity="0.9"/>
  </g><g transform="rotate(-12 305 392)">
    <rect x="292.5" y="383.5" width="25" height="17" rx="0.9"
      fill="#A99787" stroke="#453E35" stroke-width="1.05"/>
    <line x1="294.5" y1="385.6" x2="315.5" y2="385.6"
      stroke="#F6E8CD" stroke-width="0.7" opacity="0.9"/>
  </g><g transform="rotate(-8 333 381)">
    <rect x="318.5" y="372" width="29" height="18" rx="0.9"
      fill="#C7A97B" stroke="#453E35" stroke-width="1.05"/>
    <line x1="320.5" y1="374.1" x2="345.5" y2="374.1"
      stroke="#F6E8CD" stroke-width="0.7" opacity="0.9"/>
  </g><g transform="rotate(7 365 390)">
    <rect x="350" y="381" width="30" height="18" rx="0.9"
      fill="#B68D69" stroke="#453E35" stroke-width="1.05"/>
    <line x1="352" y1="383.1" x2="378" y2="383.1"
      stroke="#F6E8CD" stroke-width="0.7" opacity="0.9"/>
  </g><g transform="rotate(12 395 407)">
    <rect x="381" y="397.5" width="28" height="19" rx="0.9"
      fill="#D4C39E" stroke="#453E35" stroke-width="1.05"/>
    <line x1="383" y1="399.6" x2="407" y2="399.6"
      stroke="#F6E8CD" stroke-width="0.7" opacity="0.9"/>
  </g><g transform="rotate(-10 273 452)">
    <rect x="257.5" y="443" width="31" height="18" rx="0.9"
      fill="#8EA6A0" stroke="#453E35" stroke-width="1.05"/>
    <line x1="259.5" y1="445.1" x2="286.5" y2="445.1"
      stroke="#F6E8CD" stroke-width="0.7" opacity="0.9"/>
  </g><g transform="rotate(-3 308 434)">
    <rect x="292.5" y="425" width="31" height="18" rx="0.9"
      fill="#A99787" stroke="#453E35" stroke-width="1.05"/>
    <line x1="294.5" y1="427.1" x2="321.5" y2="427.1"
      stroke="#F6E8CD" stroke-width="0.7" opacity="0.9"/>
  </g><g transform="rotate(7 346 432)">
    <rect x="329.5" y="423" width="33" height="18" rx="0.9"
      fill="#C7A97B" stroke="#453E35" stroke-width="1.05"/>
    <line x1="331.5" y1="425.1" x2="360.5" y2="425.1"
      stroke="#F6E8CD" stroke-width="0.7" opacity="0.9"/>
  </g><g transform="rotate(14 383 448)">
    <rect x="367.5" y="439" width="31" height="18" rx="0.9"
      fill="#B68D69" stroke="#453E35" stroke-width="1.05"/>
    <line x1="369.5" y1="441.1" x2="396.5" y2="441.1"
      stroke="#F6E8CD" stroke-width="0.7" opacity="0.9"/>
  </g><g transform="rotate(10 407 480)">
    <rect x="397" y="464" width="20" height="32" rx="0.9"
      fill="#D4C39E" stroke="#453E35" stroke-width="1.05"/>
    <line x1="399" y1="466.1" x2="415" y2="466.1"
      stroke="#F6E8CD" stroke-width="0.7" opacity="0.9"/>
  </g><g transform="rotate(-5 410 519)">
    <rect x="399.5" y="502.5" width="21" height="33" rx="0.9"
      fill="#8EA6A0" stroke="#453E35" stroke-width="1.05"/>
    <line x1="401.5" y1="504.6" x2="418.5" y2="504.6"
      stroke="#F6E8CD" stroke-width="0.7" opacity="0.9"/>
  </g><g transform="rotate(-11 382 556)">
    <rect x="365.5" y="547" width="33" height="18" rx="0.9"
      fill="#A99787" stroke="#453E35" stroke-width="1.05"/>
    <line x1="367.5" y1="549.1" x2="396.5" y2="549.1"
      stroke="#F6E8CD" stroke-width="0.7" opacity="0.9"/>
  </g><g transform="rotate(-2 344 570)">
    <rect x="328" y="561" width="32" height="18" rx="0.9"
      fill="#C7A97B" stroke="#453E35" stroke-width="1.05"/>
    <line x1="330" y1="563.1" x2="358" y2="563.1"
      stroke="#F6E8CD" stroke-width="0.7" opacity="0.9"/>
  </g><g transform="rotate(8 305 570)">
    <rect x="288" y="561" width="34" height="18" rx="0.9"
      fill="#B68D69" stroke="#453E35" stroke-width="1.05"/>
    <line x1="290" y1="563.1" x2="320" y2="563.1"
      stroke="#F6E8CD" stroke-width="0.7" opacity="0.9"/>
  </g><g transform="rotate(13 268 551)">
    <rect x="252.5" y="541.5" width="31" height="19" rx="0.9"
      fill="#D4C39E" stroke="#453E35" stroke-width="1.05"/>
    <line x1="254.5" y1="543.6" x2="281.5" y2="543.6"
      stroke="#F6E8CD" stroke-width="0.7" opacity="0.9"/>
  </g><g transform="rotate(-7 246 518)">
    <rect x="236" y="502" width="20" height="32" rx="0.9"
      fill="#8EA6A0" stroke="#453E35" stroke-width="1.05"/>
    <line x1="238" y1="504.1" x2="254" y2="504.1"
      stroke="#F6E8CD" stroke-width="0.7" opacity="0.9"/>
  </g><g transform="rotate(9 247 480)">
    <rect x="237" y="464.5" width="20" height="31" rx="0.9"
      fill="#A99787" stroke="#453E35" stroke-width="1.05"/>
    <line x1="239" y1="466.6" x2="255" y2="466.6"
      stroke="#F6E8CD" stroke-width="0.7" opacity="0.9"/>
  </g><g transform="rotate(5 286 517)">
    <rect x="274.5" y="508" width="23" height="18" rx="0.9"
      fill="#C7A97B" stroke="#453E35" stroke-width="1.05"/>
    <line x1="276.5" y1="510.1" x2="295.5" y2="510.1"
      stroke="#F6E8CD" stroke-width="0.7" opacity="0.9"/>
  </g><g transform="rotate(-8 376 512)">
    <rect x="365" y="503" width="22" height="18" rx="0.9"
      fill="#B68D69" stroke="#453E35" stroke-width="1.05"/>
    <line x1="367" y1="505.1" x2="385" y2="505.1"
      stroke="#F6E8CD" stroke-width="0.7" opacity="0.9"/>
  </g><g transform="rotate(-10 105 525)">
    <rect x="88.5" y="516" width="33" height="18" rx="0.9"
      fill="#D4C39E" stroke="#453E35" stroke-width="1.05"/>
    <line x1="90.5" y1="518.1" x2="119.5" y2="518.1"
      stroke="#F6E8CD" stroke-width="0.7" opacity="0.9"/>
  </g><g transform="rotate(6 143 529)">
    <rect x="127.5" y="520" width="31" height="18" rx="0.9"
      fill="#8EA6A0" stroke="#453E35" stroke-width="1.05"/>
    <line x1="129.5" y1="522.1" x2="156.5" y2="522.1"
      stroke="#F6E8CD" stroke-width="0.7" opacity="0.9"/>
  </g><g transform="rotate(12 181 540)">
    <rect x="164" y="530.5" width="34" height="19" rx="0.9"
      fill="#A99787" stroke="#453E35" stroke-width="1.05"/>
    <line x1="166" y1="532.6" x2="196" y2="532.6"
      stroke="#F6E8CD" stroke-width="0.7" opacity="0.9"/>
  </g><g transform="rotate(8 91 567)">
    <rect x="80" y="551" width="22" height="32" rx="0.9"
      fill="#C7A97B" stroke="#453E35" stroke-width="1.05"/>
    <line x1="82" y1="553.1" x2="100" y2="553.1"
      stroke="#F6E8CD" stroke-width="0.7" opacity="0.9"/>
  </g><g transform="rotate(-7 128 570)">
    <rect x="112.5" y="561" width="31" height="18" rx="0.9"
      fill="#B68D69" stroke="#453E35" stroke-width="1.05"/>
    <line x1="114.5" y1="563.1" x2="141.5" y2="563.1"
      stroke="#F6E8CD" stroke-width="0.7" opacity="0.9"/>
  </g><g transform="rotate(4 167 580)">
    <rect x="150" y="571" width="34" height="18" rx="0.9"
      fill="#D4C39E" stroke="#453E35" stroke-width="1.05"/>
    <line x1="152" y1="573.1" x2="182" y2="573.1"
      stroke="#F6E8CD" stroke-width="0.7" opacity="0.9"/>
  </g><g transform="rotate(10 200 595)">
    <rect x="189" y="579.5" width="22" height="31" rx="0.9"
      fill="#8EA6A0" stroke="#453E35" stroke-width="1.05"/>
    <line x1="191" y1="581.6" x2="209" y2="581.6"
      stroke="#F6E8CD" stroke-width="0.7" opacity="0.9"/>
  </g><g transform="rotate(-9 249 624)">
    <rect x="232" y="615" width="34" height="18" rx="0.9"
      fill="#A99787" stroke="#453E35" stroke-width="1.05"/>
    <line x1="234" y1="617.1" x2="264" y2="617.1"
      stroke="#F6E8CD" stroke-width="0.7" opacity="0.9"/>
  </g><g transform="rotate(5 287 627)">
    <rect x="271.5" y="618" width="31" height="18" rx="0.9"
      fill="#C7A97B" stroke="#453E35" stroke-width="1.05"/>
    <line x1="273.5" y1="620.1" x2="300.5" y2="620.1"
      stroke="#F6E8CD" stroke-width="0.7" opacity="0.9"/>
  </g><g transform="rotate(11 326 621)">
    <rect x="309" y="612" width="34" height="18" rx="0.9"
      fill="#B68D69" stroke="#453E35" stroke-width="1.05"/>
    <line x1="311" y1="614.1" x2="341" y2="614.1"
      stroke="#F6E8CD" stroke-width="0.7" opacity="0.9"/>
  </g><g transform="rotate(-7 365 614)">
    <rect x="350" y="604.5" width="30" height="19" rx="0.9"
      fill="#D4C39E" stroke="#453E35" stroke-width="1.05"/>
    <line x1="352" y1="606.6" x2="378" y2="606.6"
      stroke="#F6E8CD" stroke-width="0.7" opacity="0.9"/>
  </g><g transform="rotate(8 400 596)">
    <rect x="389" y="580.5" width="22" height="31" rx="0.9"
      fill="#8EA6A0" stroke="#453E35" stroke-width="1.05"/>
    <line x1="391" y1="582.6" x2="409" y2="582.6"
      stroke="#F6E8CD" stroke-width="0.7" opacity="0.9"/>
  </g><g transform="rotate(12 409 636)">
    <rect x="393" y="627" width="32" height="18" rx="0.9"
      fill="#A99787" stroke="#453E35" stroke-width="1.05"/>
    <line x1="395" y1="629.1" x2="423" y2="629.1"
      stroke="#F6E8CD" stroke-width="0.7" opacity="0.9"/>
  </g></g>

<!-- 20个城区边缘内部虚拟出生点 -->
<g><g><circle cx="91" cy="65" r="6" fill="#F7EDD9" stroke="#176C70" stroke-width="2"/>
  <circle cx="91" cy="65" r="2.2" fill="#176C70"/>
  <text x="91" y="56" text-anchor="middle" font-size="5.2" font-weight="700"
    font-family="Arial,Microsoft YaHei,sans-serif" fill="#155F63">SP01</text></g><g><circle cx="187" cy="53" r="6" fill="#F7EDD9" stroke="#176C70" stroke-width="2"/>
  <circle cx="187" cy="53" r="2.2" fill="#176C70"/>
  <text x="187" y="44" text-anchor="middle" font-size="5.2" font-weight="700"
    font-family="Arial,Microsoft YaHei,sans-serif" fill="#155F63">SP02</text></g><g><circle cx="293" cy="65" r="6" fill="#F7EDD9" stroke="#176C70" stroke-width="2"/>
  <circle cx="293" cy="65" r="2.2" fill="#176C70"/>
  <text x="293" y="56" text-anchor="middle" font-size="5.2" font-weight="700"
    font-family="Arial,Microsoft YaHei,sans-serif" fill="#155F63">SP03</text></g><g><circle cx="403" cy="48" r="6" fill="#F7EDD9" stroke="#176C70" stroke-width="2"/>
  <circle cx="403" cy="48" r="2.2" fill="#176C70"/>
  <text x="403" y="39" text-anchor="middle" font-size="5.2" font-weight="700"
    font-family="Arial,Microsoft YaHei,sans-serif" fill="#155F63">SP04</text></g><g><circle cx="459" cy="99" r="6" fill="#F7EDD9" stroke="#176C70" stroke-width="2"/>
  <circle cx="459" cy="99" r="2.2" fill="#176C70"/>
  <text x="459" y="90" text-anchor="middle" font-size="5.2" font-weight="700"
    font-family="Arial,Microsoft YaHei,sans-serif" fill="#155F63">SP05</text></g><g><circle cx="466" cy="186" r="6" fill="#F7EDD9" stroke="#176C70" stroke-width="2"/>
  <circle cx="466" cy="186" r="2.2" fill="#176C70"/>
  <text x="466" y="177" text-anchor="middle" font-size="5.2" font-weight="700"
    font-family="Arial,Microsoft YaHei,sans-serif" fill="#155F63">SP06</text></g><g><circle cx="449" cy="266" r="6" fill="#F7EDD9" stroke="#176C70" stroke-width="2"/>
  <circle cx="449" cy="266" r="2.2" fill="#176C70"/>
  <text x="449" y="257" text-anchor="middle" font-size="5.2" font-weight="700"
    font-family="Arial,Microsoft YaHei,sans-serif" fill="#155F63">SP07</text></g><g><circle cx="471" cy="349" r="6" fill="#F7EDD9" stroke="#176C70" stroke-width="2"/>
  <circle cx="471" cy="349" r="2.2" fill="#176C70"/>
  <text x="471" y="340" text-anchor="middle" font-size="5.2" font-weight="700"
    font-family="Arial,Microsoft YaHei,sans-serif" fill="#155F63">SP08</text></g><g><circle cx="441" cy="442" r="6" fill="#F7EDD9" stroke="#176C70" stroke-width="2"/>
  <circle cx="441" cy="442" r="2.2" fill="#176C70"/>
  <text x="441" y="433" text-anchor="middle" font-size="5.2" font-weight="700"
    font-family="Arial,Microsoft YaHei,sans-serif" fill="#155F63">SP09</text></g><g><circle cx="459" cy="548" r="6" fill="#F7EDD9" stroke="#176C70" stroke-width="2"/>
  <circle cx="459" cy="548" r="2.2" fill="#176C70"/>
  <text x="459" y="539" text-anchor="middle" font-size="5.2" font-weight="700"
    font-family="Arial,Microsoft YaHei,sans-serif" fill="#155F63">SP10</text></g><g><circle cx="452" cy="643" r="6" fill="#F7EDD9" stroke="#176C70" stroke-width="2"/>
  <circle cx="452" cy="643" r="2.2" fill="#176C70"/>
  <text x="452" y="634" text-anchor="middle" font-size="5.2" font-weight="700"
    font-family="Arial,Microsoft YaHei,sans-serif" fill="#155F63">SP11</text></g><g><circle cx="344" cy="700" r="6" fill="#F7EDD9" stroke="#176C70" stroke-width="2"/>
  <circle cx="344" cy="700" r="2.2" fill="#176C70"/>
  <text x="344" y="691" text-anchor="middle" font-size="5.2" font-weight="700"
    font-family="Arial,Microsoft YaHei,sans-serif" fill="#155F63">SP12</text></g><g><circle cx="247" cy="695" r="6" fill="#F7EDD9" stroke="#176C70" stroke-width="2"/>
  <circle cx="247" cy="695" r="2.2" fill="#176C70"/>
  <text x="247" y="686" text-anchor="middle" font-size="5.2" font-weight="700"
    font-family="Arial,Microsoft YaHei,sans-serif" fill="#155F63">SP13</text></g><g><circle cx="145" cy="711" r="6" fill="#F7EDD9" stroke="#176C70" stroke-width="2"/>
  <circle cx="145" cy="711" r="2.2" fill="#176C70"/>
  <text x="145" y="702" text-anchor="middle" font-size="5.2" font-weight="700"
    font-family="Arial,Microsoft YaHei,sans-serif" fill="#155F63">SP14</text></g><g><circle cx="76" cy="661" r="6" fill="#F7EDD9" stroke="#176C70" stroke-width="2"/>
  <circle cx="76" cy="661" r="2.2" fill="#176C70"/>
  <text x="76" y="652" text-anchor="middle" font-size="5.2" font-weight="700"
    font-family="Arial,Microsoft YaHei,sans-serif" fill="#155F63">SP15</text></g><g><circle cx="56" cy="576" r="6" fill="#F7EDD9" stroke="#176C70" stroke-width="2"/>
  <circle cx="56" cy="576" r="2.2" fill="#176C70"/>
  <text x="56" y="567" text-anchor="middle" font-size="5.2" font-weight="700"
    font-family="Arial,Microsoft YaHei,sans-serif" fill="#155F63">SP16</text></g><g><circle cx="77" cy="477" r="6" fill="#F7EDD9" stroke="#176C70" stroke-width="2"/>
  <circle cx="77" cy="477" r="2.2" fill="#176C70"/>
  <text x="77" y="468" text-anchor="middle" font-size="5.2" font-weight="700"
    font-family="Arial,Microsoft YaHei,sans-serif" fill="#155F63">SP17</text></g><g><circle cx="48" cy="376" r="6" fill="#F7EDD9" stroke="#176C70" stroke-width="2"/>
  <circle cx="48" cy="376" r="2.2" fill="#176C70"/>
  <text x="48" y="367" text-anchor="middle" font-size="5.2" font-weight="700"
    font-family="Arial,Microsoft YaHei,sans-serif" fill="#155F63">SP18</text></g><g><circle cx="71" cy="272" r="6" fill="#F7EDD9" stroke="#176C70" stroke-width="2"/>
  <circle cx="71" cy="272" r="2.2" fill="#176C70"/>
  <text x="71" y="263" text-anchor="middle" font-size="5.2" font-weight="700"
    font-family="Arial,Microsoft YaHei,sans-serif" fill="#155F63">SP19</text></g><g><circle cx="56" cy="173" r="6" fill="#F7EDD9" stroke="#176C70" stroke-width="2"/>
  <circle cx="56" cy="173" r="2.2" fill="#176C70"/>
  <text x="56" y="164" text-anchor="middle" font-size="5.2" font-weight="700"
    font-family="Arial,Microsoft YaHei,sans-serif" fill="#155F63">SP20</text></g></g>

<!-- 北针与比例尺 -->
<g font-family="Arial,Microsoft YaHei,sans-serif" fill="#37332D">
  <g transform="translate(27 44)"><path d="M0 22 L8 0 L16 22 L8 17 Z" fill="#176C70"/>
  <text x="8" y="33" text-anchor="middle" font-size="7" font-weight="700">N</text></g>
  <g transform="translate(24 730)"><rect x="0" y="0" width="64" height="5" fill="#4D473D"/>
  <rect x="0" y="0" width="32" height="5" fill="#F6EAD3"/>
  <text x="0" y="-4" font-size="5">0</text><text x="28" y="-4" font-size="5">32</text>
  <text x="59" y="-4" font-size="5">64m</text></g>
  <text x="100" y="739" font-size="5.4" font-weight="700">约512×768m｜85座候选建筑｜20个城区边缘出生点｜无固定起终点</text>
</g>
</svg>